<?xml version="1.0" encoding="UTF-8"?>
<svg version="1.1" xmlns="http://www.w3.org/2000/svg" width="512" height="512">
<path d="M0 0 C2.4375 0.1875 2.4375 0.1875 3.4375 1.1875 C3.50116651 3.06404658 3.49656453 4.94295418 3.46484375 6.8203125 C3.45122803 8.00915039 3.4376123 9.19798828 3.42358398 10.42285156 C3.40755127 11.70643555 3.39151855 12.99001953 3.375 14.3125 C3.30784239 24.06789938 3.49996881 33.7144099 4.375 43.4375 C4.46193115 44.41219238 4.5488623 45.38688477 4.63842773 46.39111328 C4.70708043 50.62667518 4.70708043 50.62667518 6.4375 54.1875 C9.26472669 54.32723273 12.06542096 54.40043458 14.89453125 54.42578125 C15.77266983 54.43534851 16.65080841 54.44491577 17.55555725 54.45477295 C20.45374033 54.47969292 23.35172242 54.4919744 26.25 54.5 C27.23591125 54.50361542 28.22182251 54.50723083 29.23760986 54.51095581 C45.92981619 54.53548775 62.2059883 53.33479469 78.7421875 51.16015625 C93.46575935 49.2377181 108.17374112 48.9054643 123 48.625 C124.6021637 48.59273315 124.6021637 48.59273315 126.23669434 48.55981445 C146.12407774 48.16466683 166.00610351 48.11134095 185.89672852 48.22436523 C188.00927326 48.23386699 190.12182241 48.24244302 192.234375 48.25 C193.22892197 48.25372116 194.22346893 48.25744232 195.24815369 48.26127625 C201.84613499 48.25893788 208.32140454 47.95240613 214.88574219 47.24755859 C218.78676135 47.15574356 220.66711144 48.55563087 223.4375 51.1875 C224.38625 51.88875 225.335 52.59 226.3125 53.3125 C229.77272781 56.27840955 232.53286684 59.73594614 235.26953125 63.3671875 C237.40752438 66.24058319 237.40752438 66.24058319 239.94921875 68.8828125 C245.92243631 75.91564322 247.01497591 80.90178716 246.72851562 89.90429688 C246.71154884 90.94999596 246.69458206 91.99569504 246.67710114 93.07308197 C246.61719855 96.44529452 246.52815458 99.81598725 246.4375 103.1875 C246.39193045 105.39832486 246.34790213 107.60918202 246.30541992 109.82006836 C246.18640733 115.66098581 246.03883688 121.50082444 245.88191223 127.34083557 C245.77796988 131.21604017 245.67823688 135.09133507 245.57946777 138.9666748 C245.33373332 148.58943756 245.08194829 158.21204055 244.82818604 167.83459473 C243.33458708 220.99989307 243.33458708 220.99989307 243.86557007 274.17425537 C244.56416274 297.9762 244.58390328 321.78895629 244.61917114 345.59904861 C244.62491572 348.51965365 244.63459632 351.44021941 244.64550781 354.36080933 C244.71461698 373.95778556 244.56904667 393.4257075 243.15290833 412.97665405 C242.20542803 426.38579115 242.21357033 439.75173117 242.3125 453.1875 C242.32258311 455.64322538 242.33169924 458.09895492 242.33984375 460.5546875 C242.36135913 466.43238631 242.39438603 472.30992181 242.4375 478.1875 C236.17297594 480.27567469 229.0842043 479.89977765 222.5078125 480.2109375 C221.58121952 480.25491039 220.65462654 480.29888329 219.69995499 480.34418869 C186.43858531 481.85617307 153.10723983 481.64384124 119.81888604 481.77693629 C110.38018096 481.81510134 100.94154617 481.86479865 91.5028981 481.91487694 C72.3156122 482.01623464 53.12830061 482.09601392 33.94086772 482.16333294 C28.14777179 482.18401996 22.3547167 482.21088821 16.56165314 482.23925209 C12.60695363 482.25738402 8.65225526 482.27026031 4.69752884 482.28080368 C3.03035273 482.28614785 1.3631814 482.29354166 -0.30397415 482.30339432 C-22.84902643 482.43263106 -47.42956895 481.60286419 -66.5625 468.1875 C-72.2937565 461.28686157 -71.86143103 450.59433869 -71.90625 442.08203125 C-71.92716454 440.46311478 -71.92716454 440.46311478 -71.94850159 438.81149292 C-71.97840375 436.45423887 -72.00429505 434.09693129 -72.02664185 431.73959351 C-72.08981221 425.15165053 -72.18383153 418.5641296 -72.27734375 411.9765625 C-72.28703123 411.27296034 -72.29671871 410.56935818 -72.30669975 409.84443474 C-72.46896899 398.19291907 -72.74043347 386.5464534 -73.06640625 374.8984375 C-73.08917696 374.08149792 -73.11194767 373.26455833 -73.1354084 372.42286301 C-73.22829458 369.09296141 -73.32145311 365.76306751 -73.41483784 362.43317986 C-74.17321437 335.32929054 -74.75828576 308.24045527 -74.75 281.125 C-74.75081573 279.90485199 -74.75163147 278.68470398 -74.75247192 277.42758179 C-74.75238129 276.24773712 -74.75229065 275.06789246 -74.75219727 273.85229492 C-74.75212173 272.83842209 -74.7520462 271.82454926 -74.75196838 270.779953 C-74.70035174 261.4705302 -74.55412586 252.17595278 -74.19876671 242.87281799 C-73.58518868 226.78541825 -73.41226344 210.71910473 -73.4281745 194.6193943 C-73.43078445 191.12512781 -73.42833785 187.63086334 -73.42678833 184.13659668 C-73.42499287 178.28799963 -73.42730461 172.4394154 -73.43212891 166.59082031 C-73.43758696 159.89800703 -73.43578697 153.20522417 -73.4303025 146.51241159 C-73.42571987 140.67881214 -73.42514507 134.84522167 -73.42774117 129.011621 C-73.42927338 125.56510007 -73.4295841 122.1185933 -73.42620468 118.67207336 C-73.41705642 105.07330915 -73.42018195 91.51572806 -74.38931084 77.94446564 C-74.662511 73.5314061 -74.8309878 70.15464505 -72.5625 66.1875 C-68.06020461 61.69210997 -63.12117423 59.34368655 -57.3125 56.875 C-56.4978125 56.51599609 -55.683125 56.15699219 -54.84375 55.78710938 C-48.86217262 53.1875 -48.86217262 53.1875 -46.5625 53.1875 C-44.83957941 48.00347615 -44.31134163 43.42646931 -44.4375 37.953125 C-44.44507324 37.19328308 -44.45264648 36.43344116 -44.46044922 35.65057373 C-44.48469125 33.24597405 -44.52196866 30.84187676 -44.5625 28.4375 C-44.61567513 25.25522192 -44.65561934 22.07317945 -44.6875 18.890625 C-44.70409668 18.16248596 -44.72069336 17.43434692 -44.73779297 16.68414307 C-44.77427045 12.94108636 -44.69738943 11.38983414 -42.5625 8.1875 C-39.46090498 8.4960904 -37.99973706 8.65787379 -35.97265625 11.11328125 C-35.52792969 11.90089844 -35.08320313 12.68851563 -34.625 13.5 C-31.54440096 18.48122569 -28.86571877 20.6391162 -23.5625 23.125 C-20.1597588 23.23133566 -18.39002645 22.05366746 -15.5625 20.1875 C-11.15546045 15.52384802 -8.32439384 10.06811139 -5.640625 4.2890625 C-4.1263334 1.3372912 -3.38994738 0.24804493 0 0 Z " fill="#A9C837" transform="translate(170.5625,13.8125)"/>
<path d="M0 0 C2.4375 0.1875 2.4375 0.1875 3.4375 1.1875 C3.50116651 3.06404658 3.49656453 4.94295418 3.46484375 6.8203125 C3.45122803 8.00915039 3.4376123 9.19798828 3.42358398 10.42285156 C3.40755127 11.70643555 3.39151855 12.99001953 3.375 14.3125 C3.30784239 24.06789938 3.49996881 33.7144099 4.375 43.4375 C4.46193115 44.41219238 4.5488623 45.38688477 4.63842773 46.39111328 C4.70708043 50.62667518 4.70708043 50.62667518 6.4375 54.1875 C9.26472669 54.32723273 12.06542096 54.40043458 14.89453125 54.42578125 C15.77266983 54.43534851 16.65080841 54.44491577 17.55555725 54.45477295 C20.45374033 54.47969292 23.35172242 54.4919744 26.25 54.5 C27.23591125 54.50361542 28.22182251 54.50723083 29.23760986 54.51095581 C45.92981619 54.53548775 62.2059883 53.33479469 78.7421875 51.16015625 C93.46575935 49.2377181 108.17374112 48.9054643 123 48.625 C124.6021637 48.59273315 124.6021637 48.59273315 126.23669434 48.55981445 C146.12407774 48.16466683 166.00610351 48.11134095 185.89672852 48.22436523 C188.00927326 48.23386699 190.12182241 48.24244302 192.234375 48.25 C193.22892197 48.25372116 194.22346893 48.25744232 195.24815369 48.26127625 C201.84613499 48.25893788 208.32140454 47.95240613 214.88574219 47.24755859 C218.78676135 47.15574356 220.66711144 48.55563087 223.4375 51.1875 C224.38625 51.88875 225.335 52.59 226.3125 53.3125 C229.77272781 56.27840955 232.53286684 59.73594614 235.26953125 63.3671875 C237.40752438 66.24058319 237.40752438 66.24058319 239.94921875 68.8828125 C245.92243631 75.91564322 247.01497591 80.90178716 246.72851562 89.90429688 C246.71154884 90.94999596 246.69458206 91.99569504 246.67710114 93.07308197 C246.61719855 96.44529452 246.52815458 99.81598725 246.4375 103.1875 C246.39193045 105.39832486 246.34790213 107.60918202 246.30541992 109.82006836 C246.18640733 115.66098581 246.03883688 121.50082444 245.88191223 127.34083557 C245.77796988 131.21604017 245.67823688 135.09133507 245.57946777 138.9666748 C245.33373332 148.58943756 245.08194829 158.21204055 244.82818604 167.83459473 C243.33458708 220.99989307 243.33458708 220.99989307 243.86557007 274.17425537 C244.56416274 297.9762 244.58390328 321.78895629 244.61917114 345.59904861 C244.62491572 348.51965365 244.63459632 351.44021941 244.64550781 354.36080933 C244.71461698 373.95778556 244.56904667 393.4257075 243.15290833 412.97665405 C242.20542803 426.38579115 242.21357033 439.75173117 242.3125 453.1875 C242.32258311 455.64322538 242.33169924 458.09895492 242.33984375 460.5546875 C242.36135913 466.43238631 242.39438603 472.30992181 242.4375 478.1875 C236.17297594 480.27567469 229.0842043 479.89977765 222.5078125 480.2109375 C221.58121952 480.25491039 220.65462654 480.29888329 219.69995499 480.34418869 C186.43858531 481.85617307 153.10723983 481.64384124 119.81888604 481.77693629 C110.38018096 481.81510134 100.94154617 481.86479865 91.5028981 481.91487694 C72.3156122 482.01623464 53.12830061 482.09601392 33.94086772 482.16333294 C28.14777179 482.18401996 22.3547167 482.21088821 16.56165314 482.23925209 C12.60695363 482.25738402 8.65225526 482.27026031 4.69752884 482.28080368 C3.03035273 482.28614785 1.3631814 482.29354166 -0.30397415 482.30339432 C-22.84902643 482.43263106 -47.42956895 481.60286419 -66.5625 468.1875 C-72.2937565 461.28686157 -71.86143103 450.59433869 -71.90625 442.08203125 C-71.92716454 440.46311478 -71.92716454 440.46311478 -71.94850159 438.81149292 C-71.97840375 436.45423887 -72.00429505 434.09693129 -72.02664185 431.73959351 C-72.08981221 425.15165053 -72.18383153 418.5641296 -72.27734375 411.9765625 C-72.28703123 411.27296034 -72.29671871 410.56935818 -72.30669975 409.84443474 C-72.46896899 398.19291907 -72.74043347 386.5464534 -73.06640625 374.8984375 C-73.08917696 374.08149792 -73.11194767 373.26455833 -73.1354084 372.42286301 C-73.22829458 369.09296141 -73.32145311 365.76306751 -73.41483784 362.43317986 C-74.17321437 335.32929054 -74.75828576 308.24045527 -74.75 281.125 C-74.75081573 279.90485199 -74.75163147 278.68470398 -74.75247192 277.42758179 C-74.75238129 276.24773712 -74.75229065 275.06789246 -74.75219727 273.85229492 C-74.75212173 272.83842209 -74.7520462 271.82454926 -74.75196838 270.779953 C-74.70035174 261.4705302 -74.55412586 252.17595278 -74.19876671 242.87281799 C-73.58518868 226.78541825 -73.41226344 210.71910473 -73.4281745 194.6193943 C-73.43078445 191.12512781 -73.42833785 187.63086334 -73.42678833 184.13659668 C-73.42499287 178.28799963 -73.42730461 172.4394154 -73.43212891 166.59082031 C-73.43758696 159.89800703 -73.43578697 153.20522417 -73.4303025 146.51241159 C-73.42571987 140.67881214 -73.42514507 134.84522167 -73.42774117 129.011621 C-73.42927338 125.56510007 -73.4295841 122.1185933 -73.42620468 118.67207336 C-73.41705642 105.07330915 -73.42018195 91.51572806 -74.38931084 77.94446564 C-74.662511 73.5314061 -74.8309878 70.15464505 -72.5625 66.1875 C-68.06020461 61.69210997 -63.12117423 59.34368655 -57.3125 56.875 C-56.4978125 56.51599609 -55.683125 56.15699219 -54.84375 55.78710938 C-48.86217262 53.1875 -48.86217262 53.1875 -46.5625 53.1875 C-44.83957941 48.00347615 -44.31134163 43.42646931 -44.4375 37.953125 C-44.44507324 37.19328308 -44.45264648 36.43344116 -44.46044922 35.65057373 C-44.48469125 33.24597405 -44.52196866 30.84187676 -44.5625 28.4375 C-44.61567513 25.25522192 -44.65561934 22.07317945 -44.6875 18.890625 C-44.70409668 18.16248596 -44.72069336 17.43434692 -44.73779297 16.68414307 C-44.77427045 12.94108636 -44.69738943 11.38983414 -42.5625 8.1875 C-39.46090498 8.4960904 -37.99973706 8.65787379 -35.97265625 11.11328125 C-35.52792969 11.90089844 -35.08320313 12.68851563 -34.625 13.5 C-31.54440096 18.48122569 -28.86571877 20.6391162 -23.5625 23.125 C-20.1597588 23.23133566 -18.39002645 22.05366746 -15.5625 20.1875 C-11.15546045 15.52384802 -8.32439384 10.06811139 -5.640625 4.2890625 C-4.1263334 1.3372912 -3.38994738 0.24804493 0 0 Z M195.71533203 85.28271484 C188.56002945 85.38595368 181.4049967 85.50249382 174.25 85.625 C173.09463745 85.64437622 171.9392749 85.66375244 170.74890137 85.68371582 C149.83260942 85.35760823 149.83260942 85.35760823 129.16247559 87.68470764 C125.93298736 88.28058894 122.82112312 88.41548288 119.53833008 88.52880859 C118.85913104 88.55346726 118.179932 88.57812593 117.48015118 88.60353184 C115.22255897 88.68469654 112.96481225 88.76022283 110.70703125 88.8359375 C109.09971543 88.89298827 107.49241587 88.95049865 105.88513184 89.00843811 C102.45705851 89.13166539 99.02892526 89.25298667 95.60073853 89.37301636 C86.62903345 89.68875375 77.65827707 90.03016303 68.6875 90.37109375 C67.78762171 90.40527719 66.88774342 90.43946064 65.96059608 90.47467995 C41.7275423 91.39398454 41.7275423 91.39398454 17.50033569 92.45367432 C15.00749437 92.56755419 12.51433359 92.67465115 10.02090454 92.77484131 C6.59224745 92.91389296 3.16554983 93.07662072 -0.26171875 93.24609375 C-1.75765564 93.29927513 -1.75765564 93.29927513 -3.28381348 93.35353088 C-8.59341854 93.59690387 -8.59341854 93.59690387 -13.14379883 96.12133789 C-15.86329776 100.08195043 -15.6981555 103.32009787 -15.703125 107.9921875 C-15.71797796 109.7336553 -15.7343448 111.47511062 -15.75195312 113.21655273 C-15.76105713 114.16263397 -15.77016113 115.10871521 -15.77954102 116.08346558 C-16.07662374 142.93561732 -17.87142572 169.65333931 -19.74707031 196.43115234 C-21.57406799 222.52529906 -22.82077687 248.52070035 -22.875 274.6875 C-22.87673973 275.34597805 -22.87847946 276.0044561 -22.88027191 276.68288803 C-22.96926021 315.48243823 -21.13643523 354.23714887 -19.50068474 392.99385452 C-18.33301137 420.71844953 -17.44811189 448.45271256 -16.5625 476.1875 C2.04688568 476.21136339 20.65626715 476.22873097 39.26566505 476.23931217 C47.91555942 476.2443661 56.56544392 476.25122123 65.21533203 476.26293945 C100.60154115 476.30971189 135.98552548 476.28820074 171.3693881 475.83597255 C173.5326644 475.80925178 175.69595348 475.78536774 177.859272 475.76234627 C192.71900689 475.60004148 207.53693334 475.18581596 222.36572266 474.21118164 C224.31566415 474.0844628 224.31566415 474.0844628 226.3049984 473.95518398 C231.74769896 474.07860802 231.74769896 474.07860802 236.4375 472.1875 C236.56207667 470.01936456 236.61775594 467.84727596 236.6484375 465.67578125 C236.67476068 464.23265772 236.70156204 462.78954286 236.72875977 461.34643555 C236.74206329 460.56408539 236.75536682 459.78173523 236.76907349 458.97567749 C236.98106924 446.89013157 237.33178535 434.83340415 238.16796875 422.7734375 C240.21023265 392.81799429 240.71841083 363.01622626 240.6875 333 C240.68703297 332.00182125 240.68656593 331.0036425 240.68608475 329.97521591 C240.68321521 324.1663272 240.67282604 318.35753584 240.65076637 312.54868698 C240.64409707 310.76212351 240.63863913 308.97555503 240.63449669 307.18898392 C240.62760169 304.70902418 240.61411336 302.22918688 240.59863281 299.74926758 C240.59752282 299.0413164 240.59641283 298.33336523 240.5952692 297.60396099 C240.56243723 293.66607003 240.3269257 289.80238743 239.93551636 285.8830719 C239.3759372 280.07693868 239.29658943 274.32627519 239.30810547 268.49658203 C239.30547699 266.82837402 239.30547699 266.82837402 239.30279541 265.12646484 C239.29842646 261.4827311 239.30129775 257.83904667 239.3046875 254.1953125 C239.30401294 251.64142854 239.30304165 249.08754463 239.30178833 246.53366089 C239.30031798 241.1928439 239.30234729 235.85204424 239.30712891 230.51123047 C239.31256409 224.37019774 239.31081041 218.22919827 239.3053025 212.08816636 C239.3001852 206.14067255 239.30076836 200.1931889 239.30368423 194.24569321 C239.30434748 191.73329539 239.30354631 189.22089672 239.30120468 186.70849991 C239.29864111 183.18471337 239.30257073 179.66098899 239.30810547 176.13720703 C239.30608124 175.11654144 239.30405701 174.09587585 239.30197144 173.04428101 C239.32027146 166.69717902 239.68291687 160.43522999 240.20983505 154.11059761 C240.47329437 150.7279192 240.57080385 147.36864935 240.58276367 143.97607422 C240.58914352 142.72543182 240.59552338 141.47478943 240.60209656 140.18624878 C240.60320938 138.88470856 240.6043222 137.58316833 240.60546875 136.2421875 C240.60869215 134.85547859 240.61205698 133.46877001 240.61555481 132.08206177 C240.62148047 129.20639251 240.62340094 126.33075304 240.62280273 123.45507812 C240.62270005 119.77093302 240.63648984 116.08697605 240.65357494 112.4028759 C240.66467093 109.55304071 240.66672289 106.70325195 240.66619301 103.85339737 C240.66737144 102.4938198 240.67178554 101.13424096 240.67952538 99.77468491 C240.68930068 97.88480868 240.68518935 95.99487595 240.68041992 94.10498047 C240.68255745 92.49500687 240.68255745 92.49500687 240.68473816 90.85250854 C240.62942745 87.96030135 240.62942745 87.96030135 238.4375 85.1875 C235.63466552 84.75042062 235.63466552 84.75042062 232.265625 84.859375 C231.29146385 84.86157295 231.29146385 84.86157295 230.29762268 84.86381531 C228.09386911 84.87326824 225.89102882 84.90516445 223.6875 84.9375 C222.11678795 84.95024148 220.5460678 84.96201415 218.9753418 84.97290039 C214.4855695 85.01031447 209.99641464 85.07214493 205.50701904 85.14068604 C202.24315507 85.190464 198.97925052 85.23665745 195.71533203 85.28271484 Z " fill="#20211F" transform="translate(170.5625,13.8125)"/>
<path d="M0 0 C16.88165426 13.30423999 30.05341055 32.32298816 33.1953125 53.97265625 C33.49070407 58.43477309 33.52020361 62.87694355 33.5078125 67.34765625 C33.52392578 68.50265625 33.54003906 69.65765625 33.55664062 70.84765625 C33.56088485 78.36841898 32.58926289 84.84851705 30.1953125 91.97265625 C29.61330078 93.73802734 29.61330078 93.73802734 29.01953125 95.5390625 C24.75623262 106.77600425 19.01731516 115.86759781 11.1953125 124.97265625 C10.68742188 125.57722656 10.17953125 126.18179688 9.65625 126.8046875 C-2.90124967 140.5535397 -22.94613522 149.94637089 -41.33984375 151.13671875 C-65.01580115 152.14707255 -87.12181257 147.03494471 -105.0546875 130.59765625 C-123.49744724 113.15004141 -133.31622623 92.34674695 -134.1796875 66.84765625 C-133.79975021 43.64773528 -124.06793596 22.44324565 -107.59472656 6.22363281 C-77.95472189 -21.56039161 -32.71392746 -23.64697542 0 0 Z " fill="#439996" transform="translate(333.8046875,219.02734375)"/>
<path d="M0 0 C0.79664062 0.40992187 1.59328125 0.81984375 2.4140625 1.2421875 C3.47367187 1.78101562 4.53328125 2.31984375 5.625 2.875 C6.66914062 3.40867187 7.71328125 3.94234375 8.7890625 4.4921875 C17.88301258 8.76258255 26.90288855 9.19581816 36.76757812 9.51757812 C42.7830398 9.7830398 42.7830398 9.7830398 45 12 C47.16804529 19.55762268 47.31556297 27.32242685 47.25 35.125 C47.24540771 36.29353516 47.24081543 37.46207031 47.23608398 38.66601562 C47.04565446 58.34961882 46.28686247 78.20239931 44.5 97.80859375 C38.52338178 166.14813179 40.68532208 236.16583301 44.47071838 304.56910706 C45.19165289 317.91290243 45.4909612 331.26090218 45.70874023 344.62109375 C45.85405316 353.26641182 46.16820314 361.86241843 46.77001953 370.48901367 C47.69234391 384.56963671 47.69234391 384.56963671 45.875 388.32421875 C44 390 44 390 41.171875 390.34765625 C27.36431717 389.19702643 11.47904294 385.49208422 1.39227295 375.38772583 C-1.47439746 371.85781853 -1.70656741 368.50450488 -1.64355469 364.07373047 C-1.6568708 362.91627068 -1.6568708 362.91627068 -1.67045593 361.73542786 C-1.69406732 359.19557156 -1.68295625 356.65710898 -1.671875 354.1171875 C-1.68246613 352.33845537 -1.69538226 350.55973571 -1.71051025 348.78103638 C-1.74470073 344.10023894 -1.75009427 339.41985791 -1.74859619 334.73895264 C-1.75136764 329.08483226 -1.784331 323.43082856 -1.81666946 317.7768116 C-1.84183642 313.36960746 -1.86146477 308.96267121 -1.86248779 304.5553894 C-1.87434414 296.91900902 -2.01563056 289.38812515 -2.74719238 281.77957153 C-5.28798643 253.84402559 -4.15512849 225.34971572 -4.13037109 197.33984375 C-4.12460232 190.74655041 -4.12801234 184.15329715 -4.13394356 177.56000519 C-4.13755312 172.44193213 -4.13640999 167.32386863 -4.13381577 162.20579529 C-4.13315131 159.77217097 -4.133958 157.33854577 -4.13629532 154.90492249 C-4.13883618 151.52578401 -4.13496422 148.14671167 -4.12939453 144.76757812 C-4.13141876 143.77546326 -4.13344299 142.78334839 -4.13552856 141.76116943 C-4.1239231 137.95814187 -4.0494014 134.34060844 -3.50276184 130.57168579 C-2.77623191 125.41032228 -2.83869797 120.29157783 -2.82641602 115.08544922 C-2.819729 113.90252289 -2.81304199 112.71959656 -2.80615234 111.50082397 C-2.78848991 108.27373734 -2.77491166 105.04666115 -2.7625401 101.81955099 C-2.74803538 98.43461473 -2.72654557 95.04972505 -2.70530701 91.66482544 C-2.63430443 80.14883238 -2.57425764 68.63279749 -2.52319336 57.11669922 C-2.49487521 50.7470033 -2.4594948 44.37738506 -2.41653961 38.00777066 C-2.39419054 34.64137608 -2.37566081 31.27505314 -2.36609077 27.90859604 C-2.35395796 24.15753965 -2.32981856 20.40673754 -2.30297852 16.65576172 C-2.30238937 15.54394531 -2.30180023 14.43212891 -2.30119324 13.28662109 C-2.29147491 12.2633371 -2.28175659 11.2400531 -2.27174377 10.1857605 C-2.26751184 9.29979124 -2.2632799 8.41382198 -2.25891972 7.50100517 C-1.970122 4.71139687 -1.15009703 2.54572107 0 0 Z " fill="#439A97" transform="translate(104,100)"/>
<path d="M0 0 C3.4314363 0.01089137 6.86283423 0.0104053 10.29428482 0.01004219 C20.67454556 0.01015784 31.05304356 0.07221936 41.43255615 0.19561768 C42.44554024 0.2063393 42.44554024 0.2063393 43.47898865 0.21727753 C47.64963356 0.26316844 51.8178223 0.34766616 55.98724365 0.45733643 C57.47673019 0.4773748 57.47673019 0.4773748 58.99630737 0.49781799 C67.50919666 0.79213681 71.77699076 4.10904482 77.6239624 10.12530518 C81.5452629 14.61405089 85.53562866 19.50483521 87.43255615 25.19561768 C74.12875762 29.63021719 58.12547629 28.64125327 44.25286865 29.01202393 C42.1806516 29.0732693 40.10845735 29.13529091 38.0362854 29.19804382 C32.64266081 29.35990925 27.24884583 29.51390618 21.85491943 29.66534424 C13.17513374 29.90955559 4.49561279 30.16227493 -4.18371964 30.42207146 C-7.20377213 30.51075075 -10.22394428 30.59372766 -13.24417114 30.67622375 C-15.08614738 30.73007627 -16.92811756 30.78413684 -18.77008057 30.83843994 C-19.60639008 30.85975479 -20.44269958 30.88106964 -21.30435181 30.9030304 C-25.47066127 30.99922088 -25.47066127 30.99922088 -29.56318855 31.70054531 C-33.15759474 32.58840185 -36.89007904 32.35431514 -40.57525635 32.37139893 C-42.50015339 32.39187644 -44.42503933 32.41341724 -46.34991455 32.43585205 C-47.37992584 32.44705078 -48.40993713 32.45824951 -49.47116089 32.4697876 C-71.98959441 32.73773466 -94.40986279 33.78551578 -116.87994385 35.19561768 C-117.60017982 35.24062534 -118.3204158 35.28563301 -119.06247711 35.33200455 C-136.79572329 36.43749834 -136.79572329 36.43749834 -154.51495361 37.74371338 C-161.08396201 38.2553613 -167.60530101 38.37935789 -174.19244385 38.38311768 C-175.32939697 38.39536377 -176.4663501 38.40760986 -177.63775635 38.42022705 C-187.22032067 38.43671082 -196.33206754 37.87350159 -204.94244385 33.32061768 C-205.89892822 32.8281958 -206.8554126 32.33577393 -207.84088135 31.82843018 C-214.84965244 27.6312005 -214.84965244 27.6312005 -216.56744385 24.19561768 C-217.00494385 20.88311768 -217.00494385 20.88311768 -216.56744385 17.19561768 C-211.85335558 11.87715912 -205.56260235 9.44021922 -198.50494385 9.00811768 C-197.86556885 9.06999268 -197.22619385 9.13186768 -196.56744385 9.19561768 C-195.89589452 10.48475255 -195.23035526 11.77701972 -194.56744385 13.07061768 C-194.19619385 13.78991455 -193.82494385 14.50921143 -193.44244385 15.25030518 C-192.56744385 17.19561768 -192.56744385 17.19561768 -192.56744385 19.19561768 C-167.93572124 20.9584577 -167.93572124 20.9584577 -143.56744385 18.19561768 C-143.50685791 17.48534424 -143.44627197 16.7750708 -143.3838501 16.04327393 C-143.2581665 14.66462158 -143.2581665 14.66462158 -143.12994385 13.25811768 C-143.00812744 11.88333252 -143.00812744 11.88333252 -142.8838501 10.48077393 C-142.56744385 8.19561768 -142.56744385 8.19561768 -141.56744385 7.19561768 C-139.38328817 7.08444865 -137.19574456 7.03951267 -135.0088501 7.01983643 C-133.59412048 6.99952416 -132.17940695 6.97806705 -130.76470947 6.95562744 C-130.01101074 6.94443878 -129.25731201 6.93325012 -128.48077393 6.92172241 C-114.69863015 6.69539554 -101.23004748 5.77218612 -87.56072617 3.99760056 C-77.22213894 2.65722385 -66.92575901 1.65634309 -56.51275635 1.07843018 C-55.77827396 1.03659292 -55.04379158 0.99475567 -54.28705215 0.95165062 C-36.19585301 -0.05566413 -18.11366719 -0.07246335 0 0 Z " fill="#FBEEDA" transform="translate(320.56744384765625,66.80438232421875)"/>
<path d="M0 0 C16.88165426 13.30423999 30.05341055 32.32298816 33.1953125 53.97265625 C33.49070407 58.43477309 33.52020361 62.87694355 33.5078125 67.34765625 C33.52392578 68.50265625 33.54003906 69.65765625 33.55664062 70.84765625 C33.56088485 78.36841898 32.58926289 84.84851705 30.1953125 91.97265625 C29.61330078 93.73802734 29.61330078 93.73802734 29.01953125 95.5390625 C24.75623262 106.77600425 19.01731516 115.86759781 11.1953125 124.97265625 C10.68742188 125.57722656 10.17953125 126.18179688 9.65625 126.8046875 C-2.90124967 140.5535397 -22.94613522 149.94637089 -41.33984375 151.13671875 C-65.01580115 152.14707255 -87.12181257 147.03494471 -105.0546875 130.59765625 C-123.49744724 113.15004141 -133.31622623 92.34674695 -134.1796875 66.84765625 C-133.79975021 43.64773528 -124.06793596 22.44324565 -107.59472656 6.22363281 C-77.95472189 -21.56039161 -32.71392746 -23.64697542 0 0 Z M-108.24072266 15.50146484 C-121.00194689 29.95201035 -127.37504574 47.18907647 -127.1796875 66.41015625 C-127.19128906 67.54775391 -127.20289063 68.68535156 -127.21484375 69.85742188 C-127.1446375 90.36934869 -118.54436222 108.52699416 -104.6015625 123.3359375 C-88.86222893 138.17399638 -69.46711761 145.65056632 -48.03295898 145.37719727 C-41.01450696 145.14309053 -34.50679188 144.12815076 -27.8046875 141.97265625 C-26.7528125 141.64394531 -25.7009375 141.31523437 -24.6171875 140.9765625 C-5.24205078 134.24649698 9.75115166 121.11423034 19.1953125 102.97265625 C21.08841776 99.03777254 22.71606609 95.07980632 24.1953125 90.97265625 C24.515 90.16183594 24.8346875 89.35101563 25.1640625 88.515625 C30.81492191 71.90314479 27.96216913 50.20755059 20.62109375 34.6328125 C17.10148065 27.85459131 13.24141368 21.70927653 8.1953125 15.97265625 C7.23044922 14.86664063 7.23044922 14.86664063 6.24609375 13.73828125 C-7.14806115 -0.62144119 -26.46481278 -9.39863296 -46.08203125 -10.27734375 C-69.9816178 -10.84991592 -91.81439551 -1.9860667 -108.24072266 15.50146484 Z " fill="#20211C" transform="translate(333.8046875,219.02734375)"/>
<path d="M0 0 C5.05653427 0.83001426 7.04495843 4.09305428 10 8 C13 12.4 13 12.4 13 16 C8.25 15.125 8.25 15.125 6 14 C6.50660156 15.2684375 6.50660156 15.2684375 7.0234375 16.5625 C11.2883228 27.40960713 14.72718158 37.11464878 13 49 C11.05058423 51.71146012 9.90108896 52.79777541 6.6328125 53.53125 C0.9637113 53.46060699 -2.71309575 53.08276596 -7 49 C-9.19112875 45.49842126 -10.69654782 41.91035654 -12 38 C-12.47179687 39.24716797 -12.47179687 39.24716797 -12.953125 40.51953125 C-13.38109375 41.60621094 -13.8090625 42.69289063 -14.25 43.8125 C-14.66765625 44.89144531 -15.0853125 45.97039062 -15.515625 47.08203125 C-17.61877528 51.21638194 -19.6648577 52.55495257 -24 54 C-31.40693262 54.66055978 -37.02730493 54.6742831 -43 50 C-47.71238325 42.90778441 -45.01668005 31.04266543 -44 23 C-45.47102264 27.63595013 -46.85788486 32.26618923 -47.9140625 37.015625 C-48.07358398 37.71429688 -48.23310547 38.41296875 -48.39746094 39.1328125 C-48.70923884 40.51509164 -49.0074115 41.90052991 -49.29003906 43.2890625 C-50.47802355 48.48232516 -52.30697876 51.31261696 -56 55 C-59.0625 55.625 -59.0625 55.625 -62 55 C-65.77646101 52.27255594 -66.82482075 49.41458639 -68 45 C-68.22298079 42.20104056 -68.19095028 39.43042334 -68.125 36.625 C-68.11597656 35.88894531 -68.10695312 35.15289062 -68.09765625 34.39453125 C-68.07430144 32.5962112 -68.03843836 30.79806089 -68 29 C-67.34 29 -66.68 29 -66 29 C-65.72285156 30.20398438 -65.44570312 31.40796875 -65.16015625 32.6484375 C-64.79440321 34.22398907 -64.42851055 35.79950823 -64.0625 37.375 C-63.88009766 38.1690625 -63.69769531 38.963125 -63.50976562 39.78125 C-63.33251953 40.54179687 -63.15527344 41.30234375 -62.97265625 42.0859375 C-62.81031494 42.7876709 -62.64797363 43.4894043 -62.48071289 44.21240234 C-62.0411926 46.08394574 -62.0411926 46.08394574 -61 48 C-60.01 48 -59.02 48 -58 48 C-57.86013672 47.38705078 -57.72027344 46.77410156 -57.57617188 46.14257812 C-54.21049507 31.67341448 -50.30401947 18.4560292 -42 6 C-40.68 6.33 -39.36 6.66 -38 7 C-37.19795106 11.86824146 -36.91180015 16.46451945 -37.0078125 21.39453125 C-37.02530301 22.7753836 -37.0422137 24.1562434 -37.05859375 25.53710938 C-37.08971891 27.68795662 -37.12555256 29.83842662 -37.17138672 31.98901367 C-37.21355633 34.08256885 -37.2370929 36.17566926 -37.2578125 38.26953125 C-37.2798877 39.51323486 -37.30196289 40.75693848 -37.32470703 42.03833008 C-37.21755371 43.01568115 -37.11040039 43.99303223 -37 45 C-33.93952368 47.04031755 -33.06504006 47.31593524 -29.5625 47.375 C-28.41974609 47.41753906 -28.41974609 47.41753906 -27.25390625 47.4609375 C-24.02390967 46.80038361 -23.00098851 45.60827825 -21 43 C-20.67409483 40.30252249 -20.57761238 38.02996357 -20.6796875 35.34765625 C-20.69009064 34.61050888 -20.70049377 33.87336151 -20.71121216 33.11387634 C-20.74675948 30.76260575 -20.80904362 28.41309868 -20.875 26.0625 C-20.93040154 23.71564243 -20.97984583 21.36904884 -21.0173645 19.02183533 C-21.04169832 17.56356686 -21.07672746 16.10542574 -21.12399292 14.64772034 C-21.20279679 10.62109791 -20.79239152 7.62122804 -19 4 C-18.01 4.33 -17.02 4.66 -16 5 C-15.20385742 6.69555664 -15.20385742 6.69555664 -14.60546875 8.91015625 C-14.26020142 10.13690063 -14.26020142 10.13690063 -13.90795898 11.38842773 C-13.67020752 12.27087158 -13.43245605 13.15331543 -13.1875 14.0625 C-12.66543272 15.88916141 -12.13932815 17.71467334 -11.609375 19.5390625 C-11.34318359 20.4559082 -11.07699219 21.37275391 -10.80273438 22.31738281 C-9.63039203 26.23517406 -8.3317476 30.09361463 -6.9375 33.9375 C-6.60625122 34.90151733 -6.60625122 34.90151733 -6.26831055 35.88500977 C-4.65118053 40.24643096 -2.56518872 43.02714671 1 46 C3.71163778 46.41986946 3.71163778 46.41986946 6 46 C6.41482304 38.83566047 4.83575891 32.70772644 3 25.8125 C0.75876159 17.02758866 -0.97735239 9.10385656 0 0 Z " fill="#1C2020" transform="translate(301,275)"/>
<path d="M0 0 C0.5569112 13.01483697 1.09275917 26.03579126 1.25 39.0625 C1.2819043 40.38060669 1.2819043 40.38060669 1.31445312 41.7253418 C1.328125 44.16015625 1.328125 44.16015625 1 48 C-2.06783233 50.04522156 -2.6791564 50.25009617 -6.1328125 50.23046875 C-6.93976563 50.22853516 -7.74671875 50.22660156 -8.578125 50.22460938 C-9.83882812 50.20624023 -9.83882812 50.20624023 -11.125 50.1875 C-11.94226563 50.18685547 -12.75953125 50.18621094 -13.6015625 50.18554688 C-29.99219517 50.06884142 -29.99219517 50.06884142 -35 46 C-35.96293686 43.11118941 -36.12877942 41.27577685 -36.1328125 38.2734375 C-36.13474609 37.33121338 -36.13667969 36.38898926 -36.13867188 35.41821289 C-36.13416016 34.41395264 -36.12964844 33.40969238 -36.125 32.375 C-36.12306641 31.35204834 -36.12113281 30.32909668 -36.11914062 29.27514648 C-36.06981635 20.49063063 -35.6583232 11.75804968 -35 3 C-33.24870343 4.10210905 -31.49901536 5.20677432 -29.75 6.3125 C-28.28820312 7.23482422 -28.28820312 7.23482422 -26.796875 8.17578125 C-24 10 -24 10 -22.015625 11.79296875 C-19.98249188 13.23581444 -19.98249188 13.23581444 -17.140625 13.06640625 C-12.89527001 11.62488646 -10.71931106 9.20150399 -7.75 5.9375 C-2.22360953 0 -2.22360953 0 0 0 Z " fill="#F27E1F" transform="translate(168,32)"/>
<path d="M0 0 C0.33 1.65 0.66 3.3 1 5 C-1.38216657 6.19108329 -2.94866442 6.17083365 -5.609375 6.24609375 C-7.06077881 6.29334595 -7.06077881 6.29334595 -8.54150391 6.34155273 C-9.60030762 6.37321533 -10.65911133 6.40487793 -11.75 6.4375 C-39.79026209 7.4155145 -39.79026209 7.4155145 -67.65231323 10.53015137 C-77.90801399 11.9695414 -88.22257764 12.16704448 -98.56118393 12.26036072 C-100.9377509 12.28188921 -103.31420732 12.30886445 -105.69070435 12.33703613 C-110.75209021 12.39607167 -115.8135338 12.44838815 -120.875 12.5 C-127.51828586 12.56826334 -134.16151934 12.63980123 -140.8046875 12.71875 C-142.00163868 12.73282898 -142.00163868 12.73282898 -143.22277069 12.74719238 C-156.16262222 12.90511985 -169.07708306 13.29564205 -182 14 C-181.125 9.125 -181.125 9.125 -180 8 C-178.42939068 7.89251387 -176.8540264 7.85374795 -175.27978516 7.84228516 C-174.26138046 7.83189209 -173.24297577 7.82149902 -172.19371033 7.81079102 C-171.07017654 7.80362061 -169.94664276 7.7964502 -168.7890625 7.7890625 C-166.36612223 7.76321013 -163.94318946 7.73664822 -161.52026367 7.70947266 C-160.23332611 7.69619934 -158.94638855 7.68292603 -157.62045288 7.66925049 C-136.11710622 7.43109636 -114.65903822 6.88870503 -93.1875 5.625 C-92.16609924 5.56773743 -91.14469849 5.51047485 -90.09234619 5.45147705 C-79.60277667 4.85388791 -69.25142554 3.97719149 -58.85546875 2.44140625 C-48.2659565 0.88435572 -37.8157183 0.45394392 -27.125 0.3125 C-25.36586309 0.2791522 -23.60674772 0.24464824 -21.84765625 0.20898438 C-14.56427561 0.06846913 -7.28479287 -0.01493841 0 0 Z " fill="#282726" transform="translate(371,77)"/>
<path d="M0 0 C4.73599818 1.48814622 6.41250461 5.39066351 8.75 9.4375 C9.16121094 10.11876953 9.57242187 10.80003906 9.99609375 11.50195312 C13 16.59661804 13 16.59661804 13 20 C10.03824877 19.38722388 8.61941217 18.74627478 6 17 C6.1861084 17.68932617 6.3722168 18.37865234 6.56396484 19.08886719 C8.73571462 27.41047386 10.25563966 35.76334706 11.625 44.25 C11.84333164 45.57298578 12.06208006 46.89590284 12.28125 48.21875 C15.13597861 65.62907019 15.13597861 65.62907019 15.1875 72.6875 C15.20167969 73.57824219 15.21585937 74.46898437 15.23046875 75.38671875 C14.97818542 78.24735518 14.18590992 80.398498 13 83 C12.67 83 12.34 83 12 83 C11.84442627 82.19183838 11.68885254 81.38367676 11.52856445 80.55102539 C10.79078508 76.72134128 10.051939 72.89186394 9.3125 69.0625 C9.11049988 68.0159877 9.11049988 68.0159877 8.90441895 66.94833374 C6.8695789 56.41309891 4.79696962 45.88629715 2.6496582 35.37329102 C-1.29329424 15.9010684 -1.29329424 15.9010684 -1.1875 7.3125 C-1.18105469 6.13300781 -1.17460937 4.95351562 -1.16796875 3.73828125 C-1 1 -1 1 0 0 Z " fill="#1D2221" transform="translate(315,241)"/>
<path d="M0 0 C-1.968943 6.03843259 -5.57276257 8.08344625 -11 11 C-14.48015268 12.47706442 -18.01265313 13.64131141 -21.625 14.75 C-22.97851562 15.18505859 -22.97851562 15.18505859 -24.359375 15.62890625 C-26.90030844 16.44007888 -29.44905369 17.22103727 -32 18 C-32.6815918 18.22494141 -33.36318359 18.44988281 -34.06542969 18.68164062 C-37.50474834 19.77738519 -39.56821843 20.03723487 -43 19 C-35.79752988 14.12504567 -28.05637991 10.72946019 -20.125 7.25 C-18.78099973 6.65551339 -17.43724764 6.06046539 -16.09375 5.46484375 C-13.65142328 4.38219158 -11.20751017 3.30348611 -8.76220703 2.22753906 C-3.74980111 0 -3.74980111 0 0 0 Z " fill="#1D2121" transform="translate(301,244)"/>
<path d="M0 0 C0.99 0.33 1.98 0.66 3 1 C3.02698189 2.62490954 3.04638757 4.24994633 3.0625 5.875 C3.07410156 6.77992188 3.08570313 7.68484375 3.09765625 8.6171875 C3 11 3 11 2 13 C-0.66666667 13 -3.33333333 13 -6 13 C-6.99 13.66 -7.98 14.32 -9 15 C-11.6875 15.125 -11.6875 15.125 -14 15 C-14.2165625 13.6078125 -14.2165625 13.6078125 -14.4375 12.1875 C-14.92100111 8.99274889 -14.92100111 8.99274889 -16 6 C-14.68 5.34 -13.36 4.68 -12 4 C-11 5 -11 5 -10.9375 7.5625 C-10.958125 8.366875 -10.97875 9.17125 -11 10 C-10.34 10 -9.68 10 -9 10 C-8.01 7.03 -7.02 4.06 -6 1 C-3 4 -3 4 -2 6 C-1.34 4.02 -0.68 2.04 0 0 Z " fill="#1D2222" transform="translate(287,260)"/>
<path d="M0 0 C3.125 0.1875 3.125 0.1875 6.125 2.1875 C6.4375 5.1875 6.4375 5.1875 6.125 8.1875 C3.36449662 10.94800338 0.92444016 10.65424524 -2.875 11.1875 C-3.865 11.8475 -4.855 12.5075 -5.875 13.1875 C-9.0625 13.3125 -9.0625 13.3125 -11.875 13.1875 C-10.83677022 10.6784447 -10.108948 9.35565013 -7.875 7.75 C-5.41380592 5.82719213 -4.87110258 4.09918446 -3.875 1.1875 C-2.875 0.1875 -2.875 0.1875 0 0 Z " fill="#1D2121" transform="translate(250.875,269.8125)"/>
<path d="M0 0 C2.375 0.3125 2.375 0.3125 5 1 C7.49118953 4.7367843 7.2065226 6.74451819 7.125 11.1875 C7.10695313 12.45980469 7.08890625 13.73210937 7.0703125 15.04296875 C7.03550781 16.50669922 7.03550781 16.50669922 7 18 C6.01 18.33 5.02 18.66 4 19 C3.52040222 16.77092605 3.0413392 14.54173703 2.5625 12.3125 C2.16224609 10.45044922 2.16224609 10.45044922 1.75390625 8.55078125 C1.14944864 5.70387985 0.56235316 2.85544374 0 0 Z " fill="#1D2323" transform="translate(274,229)"/>
</svg>
